<svg id="Layer_1" data-name="Layer 1" xmlns="http://www.w3.org/2000/svg" viewBox="0 0 256.4 184.94"><defs><style>.cls-1{fill:#c52026;}.cls-2{fill:#f8f2f3;stroke:#fff;stroke-width:7px;}.cls-2,.cls-3{stroke-miterlimit:10;}.cls-3{fill:#fff;stroke:#c52127;stroke-width:6px;}</style></defs><title>bookWatch</title><path class="cls-1" d="M42.45,0h0a8.52,8.52,0,0,0-6.05,2.51,8.6,8.6,0,0,0-2.54,6.13V138.25a8.67,8.67,0,0,0,8.65,8.64c20.11,0,53.82,4.24,77.06,28.57V39.85a8.25,8.25,0,0,0-1.19-4.38C99.28,4.74,62.61.08,42.45,0Zm0,0"/><path class="cls-1" d="M218.68,138.25V8.67a8.6,8.6,0,0,0-2.54-6.13A8.5,8.5,0,0,0,210.08,0h0c-20.16,0-56.82,4.72-75.91,35.45A8.26,8.26,0,0,0,133,39.85v135.6c23.25-24.32,56.94-28.52,77.06-28.56a8.68,8.68,0,0,0,8.65-8.64Zm0,0"/><path class="cls-1" d="M238.36,29.91h-6.26V138.25a22.11,22.11,0,0,1-22,22.05c-17.06,0-45.19,3.38-65.11,22.23,34.46-8.44,70.78-3,91.48,1.77A8.64,8.64,0,0,0,247,175.88V38.55a8.65,8.65,0,0,0-8.64-8.64Zm0,0"/><path class="cls-1" d="M20.41,138.25V29.91H14.15a8.65,8.65,0,0,0-8.64,8.64V175.88a8.64,8.64,0,0,0,10.57,8.42c20.7-4.72,57-10.2,91.48-1.77-19.92-18.85-48.05-22.19-65.11-22.23a22.11,22.11,0,0,1-22-22.05Zm0,0"/><circle class="cls-2" cx="127.57" cy="95.91" r="26.43"/><polygon class="cls-1" points="141.91 95.91 131.1 102.16 120.28 108.4 120.28 95.91 120.28 83.43 131.1 89.67 141.91 95.91"/><rect class="cls-3" x="3" y="3" width="34.27" height="34.27"/><rect class="cls-3" x="3" y="40.02" width="34.27" height="34.27"/><rect class="cls-3" x="3" y="77.04" width="34.27" height="34.27"/><rect class="cls-3" x="3" y="114.05" width="34.27" height="34.27"/><rect class="cls-3" x="3" y="147.67" width="34.27" height="34.27"/><rect class="cls-3" x="219.13" y="3" width="34.27" height="34.27"/><rect class="cls-3" x="219.13" y="40.02" width="34.27" height="34.27"/><rect class="cls-3" x="219.13" y="77.04" width="34.27" height="34.27"/><rect class="cls-3" x="219.13" y="114.05" width="34.27" height="34.27"/><rect class="cls-3" x="219.13" y="147.67" width="34.27" height="34.27"/></svg>