<svg id="Layer_1" data-name="Layer 1" xmlns="http://www.w3.org/2000/svg" viewBox="0 0 148.25 169.42"><defs><style>.cls-1{fill:#235c9a;}.cls-2{fill:#fff;}</style></defs><title>Artboard 1</title><g id="icon"><path class="cls-1" d="M137.66,21.18V158.84H26.47a15.89,15.89,0,0,1,0-31.77h100.6V0H21.18A21.24,21.24,0,0,0,0,21.18V148.24a21.24,21.24,0,0,0,21.18,21.18H148.25V21.18ZM31.77,137.66h95.3v10.59H31.77Z"/></g><rect class="cls-2" x="107.92" y="6.04" width="15.58" height="15.58"/><rect class="cls-2" x="107.92" y="27.83" width="15.58" height="15.58"/><rect class="cls-2" x="107.92" y="51.88" width="15.58" height="15.58"/><rect class="cls-2" x="107.92" y="76.01" width="15.58" height="15.58"/><rect class="cls-2" x="107.92" y="101.88" width="15.58" height="15.58"/><rect class="cls-2" x="11.92" y="6.04" width="15.58" height="15.58"/><rect class="cls-2" x="11.92" y="27.83" width="15.58" height="15.58"/><rect class="cls-2" x="11.92" y="51.88" width="15.58" height="15.58"/><rect class="cls-2" x="11.92" y="76.01" width="15.58" height="15.58"/><rect class="cls-2" x="11.92" y="101.88" width="15.58" height="15.58"/></svg>