<svg id="Layer_1" data-name="Layer 1" xmlns="http://www.w3.org/2000/svg" viewBox="0 0 149.25 170.42"><defs><style>.cls-1{fill:#235c9a;stroke:#fff;stroke-miterlimit:10;}.cls-2{fill:#fff;}</style></defs><title>Artboard 1</title><g id="icon"><path class="cls-1" d="M138.16,21.68V159.34H27a15.89,15.89,0,0,1,0-31.77h100.6V.5H21.68A21.24,21.24,0,0,0,.5,21.68V148.74a21.24,21.24,0,0,0,21.18,21.18H148.75V21.68ZM32.27,138.16h95.3v10.59H32.27Z"/></g><rect class="cls-2" x="108.42" y="6.63" width="15.58" height="15.58"/><rect class="cls-2" x="108.42" y="28.42" width="15.58" height="15.58"/><rect class="cls-2" x="108.42" y="52.48" width="15.58" height="15.58"/><rect class="cls-2" x="108.42" y="76.6" width="15.58" height="15.58"/><rect class="cls-2" x="108.42" y="102.48" width="15.58" height="15.58"/><rect class="cls-2" x="12.42" y="6.63" width="15.58" height="15.58"/><rect class="cls-2" x="12.42" y="28.42" width="15.58" height="15.58"/><rect class="cls-2" x="12.42" y="52.48" width="15.58" height="15.58"/><rect class="cls-2" x="12.42" y="76.6" width="15.58" height="15.58"/><rect class="cls-2" x="12.42" y="102.48" width="15.58" height="15.58"/></svg>